<?xml version="1.0" encoding="UTF-8" standalone="no"?>
<!DOCTYPE svg PUBLIC "-//W3C//DTD SVG 1.1//EN"
 "http://www.w3.org/Graphics/SVG/1.1/DTD/svg11.dtd">
<!-- Generated by graphviz version 13.1.0 (20250701.0955)
 -->
<!-- Title: Tree Pages: 1 -->
<svg width="634pt" height="383pt"
 viewBox="0.00 0.00 634.00 383.00" xmlns="http://www.w3.org/2000/svg" xmlns:xlink="http://www.w3.org/1999/xlink">
<g id="graph0" class="graph" transform="scale(1 1) rotate(0) translate(4 379.45)">
<title>Tree</title>
<polygon fill="white" stroke="none" points="-4,4 -4,-379.45 629.75,-379.45 629.75,4 -4,4"/>
<!-- 0 -->
<g id="node1" class="node">
<title>0</title>
<path fill="#eda775" stroke="black" d="M536.5,-375C536.5,-375 410.25,-375 410.25,-375 404.25,-375 398.25,-369 398.25,-363 398.25,-363 398.25,-319 398.25,-319 398.25,-313 404.25,-307 410.25,-307 410.25,-307 536.5,-307 536.5,-307 542.5,-307 548.5,-313 548.5,-319 548.5,-319 548.5,-363 548.5,-363 548.5,-369 542.5,-375 536.5,-375"/>
<text xml:space="preserve" text-anchor="start" x="406.25" y="-357.7" font-family="Helvetica,sans-Serif" font-size="14.00">Coupler_System ≤ 0.5</text>
<text xml:space="preserve" text-anchor="start" x="410" y="-342.7" font-family="Helvetica,sans-Serif" font-size="14.00">squared_error = 0.48</text>
<text xml:space="preserve" text-anchor="start" x="417.5" y="-327.7" font-family="Helvetica,sans-Serif" font-size="14.00">samples = 404710</text>
<text xml:space="preserve" text-anchor="start" x="436.25" y="-312.7" font-family="Helvetica,sans-Serif" font-size="14.00">value = 10.1</text>
</g>
<!-- 1 -->
<g id="node2" class="node">
<title>1</title>
<path fill="#eb9d64" stroke="black" d="M371.75,-270C371.75,-270 253,-270 253,-270 247,-270 241,-264 241,-258 241,-258 241,-214 241,-214 241,-208 247,-202 253,-202 253,-202 371.75,-202 371.75,-202 377.75,-202 383.75,-208 383.75,-214 383.75,-214 383.75,-258 383.75,-258 383.75,-264 377.75,-270 371.75,-270"/>
<text xml:space="preserve" text-anchor="start" x="252.75" y="-252.7" font-family="Helvetica,sans-Serif" font-size="14.00">YearMade ≤ 1991.5</text>
<text xml:space="preserve" text-anchor="start" x="249" y="-237.7" font-family="Helvetica,sans-Serif" font-size="14.00">squared_error = 0.42</text>
<text xml:space="preserve" text-anchor="start" x="256.5" y="-222.7" font-family="Helvetica,sans-Serif" font-size="14.00">samples = 360847</text>
<text xml:space="preserve" text-anchor="start" x="271.5" y="-207.7" font-family="Helvetica,sans-Serif" font-size="14.00">value = 10.21</text>
</g>
<!-- 0&#45;&gt;1 -->
<g id="edge1" class="edge">
<title>0&#45;&gt;1</title>
<path fill="none" stroke="black" d="M421.1,-306.56C406.12,-296.98 389.65,-286.44 374.16,-276.53"/>
<polygon fill="black" stroke="black" points="376.24,-273.71 365.94,-271.27 372.47,-279.6 376.24,-273.71"/>
<text xml:space="preserve" text-anchor="middle" x="370.02" y="-289.07" font-family="Helvetica,sans-Serif" font-size="14.00">True</text>
</g>
<!-- 2 -->
<g id="node7" class="node">
<title>2</title>
<path fill="#ffffff" stroke="black" d="M613.75,-53.5C613.75,-53.5 495,-53.5 495,-53.5 489,-53.5 483,-47.5 483,-41.5 483,-41.5 483,-12.5 483,-12.5 483,-6.5 489,-0.5 495,-0.5 495,-0.5 613.75,-0.5 613.75,-0.5 619.75,-0.5 625.75,-6.5 625.75,-12.5 625.75,-12.5 625.75,-41.5 625.75,-41.5 625.75,-47.5 619.75,-53.5 613.75,-53.5"/>
<text xml:space="preserve" text-anchor="start" x="491" y="-36.2" font-family="Helvetica,sans-Serif" font-size="14.00">squared_error = 0.12</text>
<text xml:space="preserve" text-anchor="start" x="502.25" y="-21.2" font-family="Helvetica,sans-Serif" font-size="14.00">samples = 43863</text>
<text xml:space="preserve" text-anchor="start" x="517.25" y="-6.2" font-family="Helvetica,sans-Serif" font-size="14.00">value = 9.21</text>
</g>
<!-- 0&#45;&gt;2 -->
<g id="edge6" class="edge">
<title>0&#45;&gt;2</title>
<path fill="none" stroke="black" d="M482.04,-306.61C497.3,-247.83 528.85,-126.32 544.76,-65.04"/>
<polygon fill="black" stroke="black" points="548.12,-66 547.25,-55.45 541.35,-64.25 548.12,-66"/>
<text xml:space="preserve" text-anchor="middle" x="560.3" y="-69.73" font-family="Helvetica,sans-Serif" font-size="14.00">False</text>
</g>
<!-- 3 -->
<g id="node3" class="node">
<title>3</title>
<path fill="#f0b48a" stroke="black" d="M130.75,-53.5C130.75,-53.5 12,-53.5 12,-53.5 6,-53.5 0,-47.5 0,-41.5 0,-41.5 0,-12.5 0,-12.5 0,-6.5 6,-0.5 12,-0.5 12,-0.5 130.75,-0.5 130.75,-0.5 136.75,-0.5 142.75,-6.5 142.75,-12.5 142.75,-12.5 142.75,-41.5 142.75,-41.5 142.75,-47.5 136.75,-53.5 130.75,-53.5"/>
<text xml:space="preserve" text-anchor="start" x="8" y="-36.2" font-family="Helvetica,sans-Serif" font-size="14.00">squared_error = 0.37</text>
<text xml:space="preserve" text-anchor="start" x="15.5" y="-21.2" font-family="Helvetica,sans-Serif" font-size="14.00">samples = 155724</text>
<text xml:space="preserve" text-anchor="start" x="34.25" y="-6.2" font-family="Helvetica,sans-Serif" font-size="14.00">value = 9.97</text>
</g>
<!-- 1&#45;&gt;3 -->
<g id="edge2" class="edge">
<title>1&#45;&gt;3</title>
<path fill="none" stroke="black" d="M273.39,-201.51C228.42,-162.89 154.96,-99.79 110.11,-61.27"/>
<polygon fill="black" stroke="black" points="112.55,-58.75 102.68,-54.89 107.99,-64.06 112.55,-58.75"/>
</g>
<!-- 4 -->
<g id="node4" class="node">
<title>4</title>
<path fill="#e78a48" stroke="black" d="M371.75,-166C371.75,-166 253,-166 253,-166 247,-166 241,-160 241,-154 241,-154 241,-110 241,-110 241,-104 247,-98 253,-98 253,-98 371.75,-98 371.75,-98 377.75,-98 383.75,-104 383.75,-110 383.75,-110 383.75,-154 383.75,-154 383.75,-160 377.75,-166 371.75,-166"/>
<text xml:space="preserve" text-anchor="start" x="259.12" y="-148.7" font-family="Helvetica,sans-Serif" font-size="14.00">ProductSize ≤ 4.5</text>
<text xml:space="preserve" text-anchor="start" x="249" y="-133.7" font-family="Helvetica,sans-Serif" font-size="14.00">squared_error = 0.37</text>
<text xml:space="preserve" text-anchor="start" x="256.5" y="-118.7" font-family="Helvetica,sans-Serif" font-size="14.00">samples = 205123</text>
<text xml:space="preserve" text-anchor="start" x="275.25" y="-103.7" font-family="Helvetica,sans-Serif" font-size="14.00">value = 10.4</text>
</g>
<!-- 1&#45;&gt;4 -->
<g id="edge3" class="edge">
<title>1&#45;&gt;4</title>
<path fill="none" stroke="black" d="M312.38,-201.6C312.38,-194.03 312.38,-185.87 312.38,-177.9"/>
<polygon fill="black" stroke="black" points="315.88,-177.99 312.38,-167.99 308.88,-177.99 315.88,-177.99"/>
</g>
<!-- 5 -->
<g id="node5" class="node">
<title>5</title>
<path fill="#e58139" stroke="black" d="M291.75,-53.5C291.75,-53.5 173,-53.5 173,-53.5 167,-53.5 161,-47.5 161,-41.5 161,-41.5 161,-12.5 161,-12.5 161,-6.5 167,-0.5 173,-0.5 173,-0.5 291.75,-0.5 291.75,-0.5 297.75,-0.5 303.75,-6.5 303.75,-12.5 303.75,-12.5 303.75,-41.5 303.75,-41.5 303.75,-47.5 297.75,-53.5 291.75,-53.5"/>
<text xml:space="preserve" text-anchor="start" x="169" y="-36.2" font-family="Helvetica,sans-Serif" font-size="14.00">squared_error = 0.31</text>
<text xml:space="preserve" text-anchor="start" x="176.5" y="-21.2" font-family="Helvetica,sans-Serif" font-size="14.00">samples = 182403</text>
<text xml:space="preserve" text-anchor="start" x="195.25" y="-6.2" font-family="Helvetica,sans-Serif" font-size="14.00">value = 10.5</text>
</g>
<!-- 4&#45;&gt;5 -->
<g id="edge4" class="edge">
<title>4&#45;&gt;5</title>
<path fill="none" stroke="black" d="M286.4,-97.56C277.78,-86.45 268.15,-74.06 259.45,-62.85"/>
<polygon fill="black" stroke="black" points="262.22,-60.72 253.32,-54.97 256.69,-65.01 262.22,-60.72"/>
</g>
<!-- 6 -->
<g id="node6" class="node">
<title>6</title>
<path fill="#f7d6bf" stroke="black" d="M452.75,-53.5C452.75,-53.5 334,-53.5 334,-53.5 328,-53.5 322,-47.5 322,-41.5 322,-41.5 322,-12.5 322,-12.5 322,-6.5 328,-0.5 334,-0.5 334,-0.5 452.75,-0.5 452.75,-0.5 458.75,-0.5 464.75,-6.5 464.75,-12.5 464.75,-12.5 464.75,-41.5 464.75,-41.5 464.75,-47.5 458.75,-53.5 452.75,-53.5"/>
<text xml:space="preserve" text-anchor="start" x="330" y="-36.2" font-family="Helvetica,sans-Serif" font-size="14.00">squared_error = 0.17</text>
<text xml:space="preserve" text-anchor="start" x="341.25" y="-21.2" font-family="Helvetica,sans-Serif" font-size="14.00">samples = 22720</text>
<text xml:space="preserve" text-anchor="start" x="356.25" y="-6.2" font-family="Helvetica,sans-Serif" font-size="14.00">value = 9.62</text>
</g>
<!-- 4&#45;&gt;6 -->
<g id="edge5" class="edge">
<title>4&#45;&gt;6</title>
<path fill="none" stroke="black" d="M338.67,-97.56C347.49,-86.34 357.34,-73.82 366.23,-62.52"/>
<polygon fill="black" stroke="black" points="368.74,-64.98 372.17,-54.96 363.24,-60.66 368.74,-64.98"/>
</g>
</g>
</svg>
